<?xml version="1.0" encoding="UTF-8" standalone="no"?>
<svg width="125px" height="125px" viewBox="0 0 125 125" version="1.1" xmlns="http://www.w3.org/2000/svg" xmlns:xlink="http://www.w3.org/1999/xlink" xmlns:sketch="http://www.bohemiancoding.com/sketch/ns">
    <!-- Generator: Sketch 3.1 (8751) - http://www.bohemiancoding.com/sketch -->
    <title>Shape</title>
    <desc>Created with Sketch.</desc>
    <defs></defs>
    <g id="Page-1" stroke="none" stroke-width="1" fill="none" fill-rule="evenodd" sketch:type="MSPage">
        <g id="bitcoin38" sketch:type="MSLayerGroup" fill="#FFFFFF">
            <path d="M11.990625,64.1125 C11.128125,64.1125 10.428125,63.4625 10.428125,62.603125 L10.428125,62.5 C10.428125,57.040625 11.26875,51.6625 12.928125,46.515625 C13.19375,45.69375 14.075,45.25 14.89375,45.50625 C15.715625,45.771875 16.165625,46.653125 15.903125,47.471875 C14.34375,52.309375 13.553125,57.365625 13.553125,62.5 C13.553125,63.3625 12.85625,64.1125 11.990625,64.1125 L11.990625,64.1125 Z M77.66875,109.05 C72.8,110.63125 67.715625,111.440625 62.553125,111.446875 C61.690625,111.446875 60.990625,112.153125 60.990625,113.009375 C60.990625,113.865625 61.690625,114.571875 62.553125,114.571875 L62.553125,114.571875 C68.04375,114.565625 73.459375,113.709375 78.634375,112.025 C79.45625,111.7625 79.903125,110.878125 79.634375,110.05625 C79.36875,109.2375 78.484375,108.784375 77.66875,109.05 L77.66875,109.05 Z M15.9625,77.7125 C15.696875,76.890625 14.825,76.44375 13.99375,76.7125 C13.175,76.978125 12.725,77.8625 12.99375,78.68125 C14.6875,83.86875 17.184375,88.746875 20.41875,93.178125 C20.725,93.596875 21.2,93.81875 21.68125,93.81875 C22,93.81875 22.325,93.721875 22.6,93.515625 C23.296875,93.00625 23.45,92.028125 22.940625,91.334375 C19.90625,87.171875 17.55625,82.5875 15.9625,77.7125 L15.9625,77.7125 Z M77.48125,15.8875 C82.365625,17.45625 86.959375,19.78125 91.1375,22.8 C91.415625,23 91.734375,23.096875 92.05,23.096875 C92.534375,23.096875 93.0125,22.871875 93.315625,22.45 C93.821875,21.75 93.6625,20.771875 92.96875,20.26875 C88.525,17.05625 83.6375,14.58125 78.4375,12.9125 C77.615625,12.653125 76.740625,13.103125 76.471875,13.921875 C76.209375,14.74375 76.659375,15.625 77.48125,15.8875 L77.48125,15.8875 Z M21.5625,34.46875 C22.046875,34.46875 22.525,34.24375 22.828125,33.821875 C25.84375,29.65625 29.475,26.00625 33.628125,22.96875 C34.325,22.459375 34.475,21.48125 33.965625,20.784375 C33.459375,20.0875 32.48125,19.9375 31.78125,20.446875 C27.365625,23.675 23.503125,27.559375 20.296875,31.9875 C19.790625,32.6875 19.946875,33.6625 20.646875,34.16875 C20.925,34.375 21.246875,34.46875 21.5625,34.46875 L21.5625,34.46875 Z M46.75625,16.05625 C46.915625,16.05625 47.08125,16.03125 47.24375,15.978125 C52.10625,14.384375 57.190625,13.56875 62.353125,13.55625 C63.215625,13.553125 63.915625,12.853125 63.9125,11.990625 C63.909375,11.13125 63.209375,10.43125 62.35,10.43125 L62.346875,10.43125 C56.85625,10.446875 51.446875,11.315625 46.271875,13.009375 C45.453125,13.278125 45.00625,14.159375 45.275,14.98125 C45.4875,15.6375 46.096875,16.05625 46.75625,16.05625 L46.75625,16.05625 Z M47.425,109.08125 C42.54375,107.5 37.953125,105.16875 33.78125,102.140625 C33.084375,101.628125 32.103125,101.790625 31.6,102.484375 C31.09375,103.1875 31.25,104.1625 31.946875,104.66875 C36.384375,107.884375 41.26875,110.36875 46.4625,112.046875 C46.621875,112.103125 46.784375,112.121875 46.94375,112.121875 C47.603125,112.121875 48.215625,111.7 48.43125,111.040625 C48.696875,110.228125 48.246875,109.346875 47.425,109.08125 L47.425,109.08125 Z M102.1125,91.25625 C99.0875,95.4125 95.446875,99.05625 91.290625,102.084375 C90.59375,102.59375 90.44375,103.571875 90.95,104.26875 C91.25625,104.6875 91.73125,104.9125 92.2125,104.9125 C92.53125,104.9125 92.853125,104.815625 93.13125,104.6125 C97.553125,101.390625 101.421875,97.515625 104.640625,93.090625 C105.153125,92.390625 104.99375,91.415625 104.3,90.909375 C103.59375,90.4 102.61875,90.559375 102.1125,91.25625 L102.1125,91.25625 Z M113.009375,60.8375 C112.146875,60.8375 111.446875,61.634375 111.446875,62.5 C111.446875,67.6625 110.646875,72.753125 109.0625,77.621875 C108.8,78.44375 109.25,79.321875 110.06875,79.590625 C110.228125,79.646875 110.390625,79.665625 110.546875,79.665625 C111.20625,79.665625 111.81875,79.246875 112.034375,78.58125 C113.71875,73.40625 114.571875,67.990625 114.571875,62.5 L114.571875,62.3 C114.571875,61.4375 113.871875,60.8375 113.009375,60.8375 L113.009375,60.8375 Z M109.00625,47.196875 C109.221875,47.853125 109.834375,48.271875 110.49375,48.271875 C110.65625,48.271875 110.81875,48.246875 110.98125,48.19375 C111.8,47.925 112.24375,47.040625 111.975,46.221875 C110.26875,41.034375 107.75625,36.1625 104.515625,31.74375 C104.003125,31.046875 103.025,30.896875 102.334375,31.409375 C101.64375,31.921875 101.4875,32.896875 102.003125,33.59375 C105.046875,37.74375 107.403125,42.321875 109.00625,47.196875 L109.00625,47.196875 Z M125,62.5 C125,96.959375 96.959375,125 62.5,125 C28.0375,125 0,96.959375 0,62.5 C0,28.0375 28.0375,0 62.5,0 C96.959375,0 125,28.0375 125,62.5 L125,62.5 Z M118.75,62.5 C118.75,31.484375 93.515625,6.25 62.5,6.25 C31.484375,6.25 6.25,31.484375 6.25,62.5 C6.25,93.515625 31.484375,118.75 62.5,118.75 C93.515625,118.75 118.75,93.515625 118.75,62.5 L118.75,62.5 Z M67.76875,65.05625 C66.725,64.659375 65.13125,64.459375 62.990625,64.459375 L58.10625,64.459375 L58.10625,72.628125 C58.125,73.784375 58.16875,74.459375 58.240625,74.65625 C58.33125,74.90625 58.478125,75.084375 58.6875,75.18125 C58.89375,75.278125 59.45625,75.334375 60.371875,75.334375 L63.125,75.334375 C64.725,75.334375 66.053125,75.18125 67.1,74.88125 C68.15625,74.5875 69.053125,73.96875 69.7875,73.028125 C70.521875,72.090625 70.89375,70.965625 70.89375,69.646875 C70.89375,68.528125 70.63125,67.584375 70.1125,66.803125 C69.59375,66.040625 68.8125,65.453125 67.76875,65.05625 L67.76875,65.05625 Z M107.6125,62.5 C107.6125,87.415625 87.415625,107.6125 62.5,107.6125 C37.5875,107.6125 17.390625,87.415625 17.390625,62.5 C17.390625,37.5875 37.5875,17.390625 62.5,17.390625 C87.415625,17.390625 107.6125,37.5875 107.6125,62.5 L107.6125,62.5 Z M80.69375,70.653125 C80.69375,68.978125 80.296875,67.4625 79.503125,66.1 C78.709375,64.73125 77.63125,63.678125 76.2875,62.915625 C75.346875,62.371875 74,61.875 72.23125,61.428125 C73.875,60.86875 75.2,60.1625 76.203125,59.303125 C77.20625,58.446875 77.975,57.459375 78.509375,56.34375 C79.040625,55.225 79.30625,54.04375 79.30625,52.8 C79.30625,51.0875 78.803125,49.5125 77.8,48.078125 C76.7875,46.646875 75.346875,45.54375 73.471875,44.78125 C72.740625,44.484375 71.875,44.259375 70.940625,44.078125 L70.940625,37.41875 L64.55,37.41875 L64.55,43.628125 L60.44375,43.628125 L60.44375,37.41875 L54.053125,37.41875 L54.053125,43.628125 L44.30625,43.628125 L44.30625,48.846875 L45.796875,48.846875 C46.7875,48.846875 47.459375,48.940625 47.8125,49.11875 C48.165625,49.296875 48.4125,49.54375 48.55625,49.846875 C48.703125,50.153125 48.775,50.86875 48.775,51.984375 L48.775,73.028125 C48.775,74.13125 48.70625,74.8375 48.55625,75.153125 C48.4125,75.46875 48.165625,75.7125 47.8125,75.88125 C47.459375,76.053125 46.790625,76.140625 45.796875,76.140625 L44.30625,76.140625 L44.30625,81.359375 L54.053125,81.359375 L54.053125,87.56875 L60.44375,87.56875 L60.44375,81.359375 L64.078125,81.359375 C64.24375,81.359375 64.396875,81.35625 64.553125,81.35625 L64.553125,87.56875 L70.94375,87.56875 L70.94375,80.821875 C72.015625,80.615625 72.959375,80.35625 73.7625,80.03125 C75.965625,79.15 77.66875,77.86875 78.88125,76.18125 C80.0875,74.503125 80.69375,72.65625 80.69375,70.653125 L80.69375,70.653125 Z M67.04375,58.371875 C68.084375,58.0125 68.859375,57.465625 69.384375,56.74375 C69.90625,56.015625 70.165625,55.16875 70.165625,54.2125 C70.165625,53.221875 69.91875,52.375 69.425,51.671875 C68.928125,50.96875 68.20625,50.46875 67.275,50.171875 C66.334375,49.871875 64.65625,49.721875 62.24375,49.721875 L58.10625,49.721875 L58.10625,58.91875 L62.24375,58.91875 C64.409375,58.915625 66.00625,58.734375 67.04375,58.371875 L67.04375,58.371875 Z" id="Shape" sketch:type="MSShapeGroup"></path>
        </g>
    </g>
</svg>